<svg width="183" height="28" viewBox="0 0 183 28" fill="none" xmlns="http://www.w3.org/2000/svg">
<path d="M10.4102 17.5969H3.57227V14.8372H10.4102C11.7344 14.8372 12.8066 14.6262 13.627 14.2043C14.4473 13.7825 15.0449 13.1965 15.4199 12.4465C15.8066 11.6965 16 10.8411 16 9.88013C16 9.00122 15.8066 8.17505 15.4199 7.40161C15.0449 6.62817 14.4473 6.00708 13.627 5.53833C12.8066 5.05786 11.7344 4.81763 10.4102 4.81763H4.36328V27.634H0.970703V2.04028H10.4102C12.3438 2.04028 13.9785 2.37427 15.3145 3.04224C16.6504 3.71021 17.6641 4.63599 18.3555 5.81958C19.0469 6.99146 19.3926 8.33325 19.3926 9.84497C19.3926 11.4856 19.0469 12.886 18.3555 14.0461C17.6641 15.2063 16.6504 16.0911 15.3145 16.7004C13.9785 17.2981 12.3438 17.5969 10.4102 17.5969ZM34.8262 23.2395V8.6145H38.0957V27.634H34.9844L34.8262 23.2395ZM35.4414 19.2317L36.7949 19.1965C36.7949 20.4622 36.6602 21.634 36.3906 22.7122C36.1328 23.7786 35.7109 24.7043 35.125 25.4895C34.5391 26.2747 33.7715 26.8899 32.8223 27.3352C31.873 27.7688 30.7188 27.9856 29.3594 27.9856C28.4336 27.9856 27.584 27.8508 26.8105 27.5813C26.0488 27.3118 25.3926 26.8958 24.8418 26.3333C24.291 25.7708 23.8633 25.0383 23.5586 24.136C23.2656 23.2336 23.1191 22.1497 23.1191 20.884V8.6145H26.3711V20.9192C26.3711 21.7747 26.4648 22.4836 26.6523 23.0461C26.8516 23.5969 27.1152 24.0364 27.4434 24.3645C27.7832 24.6809 28.1582 24.9036 28.5684 25.0325C28.9902 25.1614 29.4238 25.2258 29.8691 25.2258C31.252 25.2258 32.3477 24.9622 33.1562 24.4348C33.9648 23.8958 34.5449 23.175 34.8965 22.2727C35.2598 21.3586 35.4414 20.345 35.4414 19.2317ZM46.5859 0.634033V27.634H43.3164V0.634033H46.5859ZM62.8809 22.5891C62.8809 22.1204 62.7754 21.6868 62.5645 21.2883C62.3652 20.8782 61.9492 20.509 61.3164 20.1809C60.6953 19.8411 59.7578 19.5481 58.5039 19.302C57.4492 19.0793 56.4941 18.8157 55.6387 18.511C54.7949 18.2063 54.0742 17.8372 53.4766 17.4036C52.8906 16.97 52.4395 16.4602 52.123 15.8743C51.8066 15.2883 51.6484 14.6028 51.6484 13.8176C51.6484 13.0676 51.8125 12.3586 52.1406 11.6907C52.4805 11.0227 52.9551 10.4309 53.5645 9.91528C54.1855 9.39966 54.9297 8.99536 55.7969 8.70239C56.6641 8.40942 57.6309 8.26294 58.6973 8.26294C60.2207 8.26294 61.5215 8.53247 62.5996 9.07153C63.6777 9.6106 64.5039 10.3313 65.0781 11.2336C65.6523 12.1243 65.9395 13.1145 65.9395 14.2043H62.6875C62.6875 13.677 62.5293 13.1672 62.2129 12.675C61.9082 12.1711 61.457 11.7551 60.8594 11.427C60.2734 11.0989 59.5527 10.9348 58.6973 10.9348C57.7949 10.9348 57.0625 11.0754 56.5 11.3567C55.9492 11.6262 55.5449 11.9719 55.2871 12.3938C55.041 12.8157 54.918 13.261 54.918 13.7297C54.918 14.0813 54.9766 14.3977 55.0938 14.679C55.2227 14.9485 55.4453 15.2004 55.7617 15.4348C56.0781 15.6575 56.5234 15.8684 57.0977 16.0676C57.6719 16.2668 58.4043 16.4661 59.2949 16.6653C60.8535 17.0168 62.1367 17.4387 63.1445 17.9309C64.1523 18.4231 64.9023 19.0266 65.3945 19.7415C65.8867 20.4563 66.1328 21.3235 66.1328 22.343C66.1328 23.175 65.957 23.9368 65.6055 24.6282C65.2656 25.3196 64.7676 25.9172 64.1113 26.4211C63.4668 26.9133 62.6934 27.3 61.791 27.5813C60.9004 27.8508 59.8984 27.9856 58.7852 27.9856C57.1094 27.9856 55.6914 27.6868 54.5312 27.0891C53.3711 26.4915 52.4922 25.718 51.8945 24.7688C51.2969 23.8196 50.998 22.8176 50.998 21.7629H54.2676C54.3145 22.6536 54.5723 23.3625 55.041 23.8899C55.5098 24.4055 56.084 24.7747 56.7637 24.9973C57.4434 25.2083 58.1172 25.3137 58.7852 25.3137C59.6758 25.3137 60.4199 25.1965 61.0176 24.9622C61.627 24.7278 62.0898 24.4055 62.4062 23.9954C62.7227 23.5852 62.8809 23.1165 62.8809 22.5891ZM78.2969 27.9856C76.9727 27.9856 75.7715 27.7629 74.6934 27.3176C73.627 26.8606 72.707 26.2219 71.9336 25.4016C71.1719 24.5813 70.5859 23.6086 70.1758 22.4836C69.7656 21.3586 69.5605 20.1282 69.5605 18.7922V18.054C69.5605 16.5071 69.7891 15.1301 70.2461 13.9231C70.7031 12.7043 71.3242 11.6731 72.1094 10.8293C72.8945 9.9856 73.7852 9.34692 74.7812 8.91333C75.7773 8.47974 76.8086 8.26294 77.875 8.26294C79.2344 8.26294 80.4062 8.49731 81.3906 8.96606C82.3867 9.43481 83.2012 10.0911 83.834 10.9348C84.4668 11.7668 84.9355 12.7512 85.2402 13.8879C85.5449 15.0129 85.6973 16.2434 85.6973 17.5793V19.0383H71.4941V16.384H82.4453V16.1379C82.3984 15.2942 82.2227 14.4739 81.918 13.677C81.625 12.8801 81.1562 12.2239 80.5117 11.7083C79.8672 11.1926 78.9883 10.9348 77.875 10.9348C77.1367 10.9348 76.457 11.093 75.8359 11.4094C75.2148 11.7141 74.6816 12.1711 74.2363 12.7805C73.791 13.3899 73.4453 14.134 73.1992 15.0129C72.9531 15.8918 72.8301 16.9055 72.8301 18.054V18.7922C72.8301 19.6946 72.9531 20.5442 73.1992 21.3411C73.457 22.1262 73.8262 22.8176 74.3066 23.4153C74.7988 24.0129 75.3906 24.4817 76.082 24.8215C76.7852 25.1614 77.582 25.3313 78.4727 25.3313C79.6211 25.3313 80.5938 25.0969 81.3906 24.6282C82.1875 24.1594 82.8848 23.5325 83.4824 22.7473L85.4512 24.3118C85.041 24.9329 84.5195 25.5247 83.8867 26.0872C83.2539 26.6497 82.4746 27.1067 81.5488 27.4583C80.6348 27.8098 79.5508 27.9856 78.2969 27.9856ZM125.986 2.04028H134.459C136.381 2.04028 138.004 2.33325 139.328 2.91919C140.664 3.50513 141.678 4.37231 142.369 5.52075C143.072 6.65747 143.424 8.05786 143.424 9.72192C143.424 10.8938 143.184 11.9661 142.703 12.9387C142.234 13.8997 141.555 14.72 140.664 15.3997C139.785 16.0676 138.73 16.5657 137.5 16.8938L136.551 17.2629H128.588L128.553 14.5032H134.564C135.783 14.5032 136.797 14.2922 137.605 13.8704C138.414 13.4368 139.023 12.8567 139.434 12.1301C139.844 11.4036 140.049 10.6008 140.049 9.72192C140.049 8.73755 139.855 7.87622 139.469 7.13794C139.082 6.39966 138.473 5.8313 137.641 5.43286C136.82 5.02271 135.76 4.81763 134.459 4.81763H129.379V27.634H125.986V2.04028ZM140.945 27.634L134.723 16.0325L138.256 16.0149L144.566 27.4231V27.634H140.945ZM159.314 23.2395V8.6145H162.584V27.634H159.473L159.314 23.2395ZM159.93 19.2317L161.283 19.1965C161.283 20.4622 161.148 21.634 160.879 22.7122C160.621 23.7786 160.199 24.7043 159.613 25.4895C159.027 26.2747 158.26 26.8899 157.311 27.3352C156.361 27.7688 155.207 27.9856 153.848 27.9856C152.922 27.9856 152.072 27.8508 151.299 27.5813C150.537 27.3118 149.881 26.8958 149.33 26.3333C148.779 25.7708 148.352 25.0383 148.047 24.136C147.754 23.2336 147.607 22.1497 147.607 20.884V8.6145H150.859V20.9192C150.859 21.7747 150.953 22.4836 151.141 23.0461C151.34 23.5969 151.604 24.0364 151.932 24.3645C152.271 24.6809 152.646 24.9036 153.057 25.0325C153.479 25.1614 153.912 25.2258 154.357 25.2258C155.74 25.2258 156.836 24.9622 157.645 24.4348C158.453 23.8958 159.033 23.175 159.385 22.2727C159.748 21.3586 159.93 20.345 159.93 19.2317ZM170.793 12.675V27.634H167.541V8.6145H170.617L170.793 12.675ZM170.02 17.4036L168.666 17.3508C168.678 16.05 168.871 14.8489 169.246 13.7473C169.621 12.634 170.148 11.6672 170.828 10.8469C171.508 10.0266 172.316 9.3938 173.254 8.94849C174.203 8.49146 175.252 8.26294 176.4 8.26294C177.338 8.26294 178.182 8.39185 178.932 8.64966C179.682 8.89575 180.32 9.29419 180.848 9.84497C181.387 10.3958 181.797 11.1106 182.078 11.9895C182.359 12.8567 182.5 13.9172 182.5 15.1711V27.634H179.23V15.136C179.23 14.1399 179.084 13.343 178.791 12.7454C178.498 12.136 178.07 11.6965 177.508 11.427C176.945 11.1458 176.254 11.0051 175.434 11.0051C174.625 11.0051 173.887 11.175 173.219 11.5149C172.562 11.8547 171.994 12.3235 171.514 12.9211C171.045 13.5188 170.676 14.2043 170.406 14.9778C170.148 15.7395 170.02 16.5481 170.02 17.4036Z" fill="#141414"/>
</svg>
