<svg width="191" height="43" viewBox="0 0 191 43" fill="none" xmlns="http://www.w3.org/2000/svg">
<g filter="url(#filter0_d_747_6234)">
<path d="M122.854 22.9877C122.854 23.1726 122.775 23.3498 122.635 23.4805C122.495 23.6112 122.306 23.6847 122.108 23.6847H118.59L113.823 32.5919C113.761 32.7079 113.666 32.8053 113.548 32.8735C113.43 32.9416 113.294 32.9776 113.156 32.9776H113.118C112.974 32.971 112.834 32.9252 112.717 32.8457C112.6 32.7663 112.51 32.6568 112.458 32.5304L105.137 14.5741L100.904 23.2758C100.844 23.3976 100.749 23.501 100.629 23.5735C100.508 23.646 100.368 23.6846 100.225 23.6847H96.246C96.0482 23.6847 95.8584 23.6112 95.7185 23.4805C95.5786 23.3498 95.5 23.1726 95.5 22.9877C95.5 22.8029 95.5786 22.6256 95.7185 22.4949C95.8584 22.3642 96.0482 22.2907 96.246 22.2907H99.7448L104.519 12.4774C104.58 12.3521 104.679 12.2465 104.804 12.1738C104.929 12.101 105.074 12.0645 105.222 12.0687C105.369 12.0729 105.511 12.1177 105.631 12.1975C105.751 12.2772 105.843 12.3884 105.896 12.5169L113.248 30.5498L117.461 22.6764C117.523 22.5605 117.619 22.463 117.736 22.3949C117.854 22.3268 117.99 22.2907 118.129 22.2907H122.108C122.306 22.2907 122.495 22.3642 122.635 22.4949C122.775 22.6256 122.854 22.8029 122.854 22.9877Z" fill="#141414"/>
<path d="M14.4102 24.5969H7.57227V21.8372H14.4102C15.7344 21.8372 16.8066 21.6262 17.627 21.2043C18.4473 20.7825 19.0449 20.1965 19.4199 19.4465C19.8066 18.6965 20 17.8411 20 16.8801C20 16.0012 19.8066 15.175 19.4199 14.4016C19.0449 13.6282 18.4473 13.0071 17.627 12.5383C16.8066 12.0579 15.7344 11.8176 14.4102 11.8176H8.36328V34.634H4.9707V9.04028H14.4102C16.3438 9.04028 17.9785 9.37427 19.3145 10.0422C20.6504 10.7102 21.6641 11.636 22.3555 12.8196C23.0469 13.9915 23.3926 15.3333 23.3926 16.845C23.3926 18.4856 23.0469 19.886 22.3555 21.0461C21.6641 22.2063 20.6504 23.0911 19.3145 23.7004C17.9785 24.2981 16.3438 24.5969 14.4102 24.5969ZM38.8262 30.2395V15.6145H42.0957V34.634H38.9844L38.8262 30.2395ZM39.4414 26.2317L40.7949 26.1965C40.7949 27.4622 40.6602 28.634 40.3906 29.7122C40.1328 30.7786 39.7109 31.7043 39.125 32.4895C38.5391 33.2747 37.7715 33.8899 36.8223 34.3352C35.873 34.7688 34.7188 34.9856 33.3594 34.9856C32.4336 34.9856 31.584 34.8508 30.8105 34.5813C30.0488 34.3118 29.3926 33.8958 28.8418 33.3333C28.291 32.7708 27.8633 32.0383 27.5586 31.136C27.2656 30.2336 27.1191 29.1497 27.1191 27.884V15.6145H30.3711V27.9192C30.3711 28.7747 30.4648 29.4836 30.6523 30.0461C30.8516 30.5969 31.1152 31.0364 31.4434 31.3645C31.7832 31.6809 32.1582 31.9036 32.5684 32.0325C32.9902 32.1614 33.4238 32.2258 33.8691 32.2258C35.252 32.2258 36.3477 31.9622 37.1562 31.4348C37.9648 30.8958 38.5449 30.175 38.8965 29.2727C39.2598 28.3586 39.4414 27.345 39.4414 26.2317ZM50.5859 7.63403V34.634H47.3164V7.63403H50.5859ZM66.8809 29.5891C66.8809 29.1204 66.7754 28.6868 66.5645 28.2883C66.3652 27.8782 65.9492 27.509 65.3164 27.1809C64.6953 26.8411 63.7578 26.5481 62.5039 26.302C61.4492 26.0793 60.4941 25.8157 59.6387 25.511C58.7949 25.2063 58.0742 24.8372 57.4766 24.4036C56.8906 23.97 56.4395 23.4602 56.123 22.8743C55.8066 22.2883 55.6484 21.6028 55.6484 20.8176C55.6484 20.0676 55.8125 19.3586 56.1406 18.6907C56.4805 18.0227 56.9551 17.4309 57.5645 16.9153C58.1855 16.3997 58.9297 15.9954 59.7969 15.7024C60.6641 15.4094 61.6309 15.2629 62.6973 15.2629C64.2207 15.2629 65.5215 15.5325 66.5996 16.0715C67.6777 16.6106 68.5039 17.3313 69.0781 18.2336C69.6523 19.1243 69.9395 20.1145 69.9395 21.2043H66.6875C66.6875 20.677 66.5293 20.1672 66.2129 19.675C65.9082 19.1711 65.457 18.7551 64.8594 18.427C64.2734 18.0989 63.5527 17.9348 62.6973 17.9348C61.7949 17.9348 61.0625 18.0754 60.5 18.3567C59.9492 18.6262 59.5449 18.9719 59.2871 19.3938C59.041 19.8157 58.918 20.261 58.918 20.7297C58.918 21.0813 58.9766 21.3977 59.0938 21.679C59.2227 21.9485 59.4453 22.2004 59.7617 22.4348C60.0781 22.6575 60.5234 22.8684 61.0977 23.0676C61.6719 23.2668 62.4043 23.4661 63.2949 23.6653C64.8535 24.0168 66.1367 24.4387 67.1445 24.9309C68.1523 25.4231 68.9023 26.0266 69.3945 26.7415C69.8867 27.4563 70.1328 28.3235 70.1328 29.343C70.1328 30.175 69.957 30.9368 69.6055 31.6282C69.2656 32.3196 68.7676 32.9172 68.1113 33.4211C67.4668 33.9133 66.6934 34.3 65.791 34.5813C64.9004 34.8508 63.8984 34.9856 62.7852 34.9856C61.1094 34.9856 59.6914 34.6868 58.5312 34.0891C57.3711 33.4915 56.4922 32.718 55.8945 31.7688C55.2969 30.8196 54.998 29.8176 54.998 28.7629H58.2676C58.3145 29.6536 58.5723 30.3625 59.041 30.8899C59.5098 31.4055 60.084 31.7747 60.7637 31.9973C61.4434 32.2083 62.1172 32.3137 62.7852 32.3137C63.6758 32.3137 64.4199 32.1965 65.0176 31.9622C65.627 31.7278 66.0898 31.4055 66.4062 30.9954C66.7227 30.5852 66.8809 30.1165 66.8809 29.5891ZM82.2969 34.9856C80.9727 34.9856 79.7715 34.7629 78.6934 34.3176C77.627 33.8606 76.707 33.2219 75.9336 32.4016C75.1719 31.5813 74.5859 30.6086 74.1758 29.4836C73.7656 28.3586 73.5605 27.1282 73.5605 25.7922V25.054C73.5605 23.5071 73.7891 22.1301 74.2461 20.9231C74.7031 19.7043 75.3242 18.6731 76.1094 17.8293C76.8945 16.9856 77.7852 16.3469 78.7812 15.9133C79.7773 15.4797 80.8086 15.2629 81.875 15.2629C83.2344 15.2629 84.4062 15.4973 85.3906 15.9661C86.3867 16.4348 87.2012 17.0911 87.834 17.9348C88.4668 18.7668 88.9355 19.7512 89.2402 20.8879C89.5449 22.0129 89.6973 23.2434 89.6973 24.5793V26.0383H75.4941V23.384H86.4453V23.1379C86.3984 22.2942 86.2227 21.4739 85.918 20.677C85.625 19.8801 85.1562 19.2239 84.5117 18.7083C83.8672 18.1926 82.9883 17.9348 81.875 17.9348C81.1367 17.9348 80.457 18.093 79.8359 18.4094C79.2148 18.7141 78.6816 19.1711 78.2363 19.7805C77.791 20.3899 77.4453 21.134 77.1992 22.0129C76.9531 22.8918 76.8301 23.9055 76.8301 25.054V25.7922C76.8301 26.6946 76.9531 27.5442 77.1992 28.3411C77.457 29.1262 77.8262 29.8176 78.3066 30.4153C78.7988 31.0129 79.3906 31.4817 80.082 31.8215C80.7852 32.1614 81.582 32.3313 82.4727 32.3313C83.6211 32.3313 84.5938 32.0969 85.3906 31.6282C86.1875 31.1594 86.8848 30.5325 87.4824 29.7473L89.4512 31.3118C89.041 31.9329 88.5195 32.5247 87.8867 33.0872C87.2539 33.6497 86.4746 34.1067 85.5488 34.4583C84.6348 34.8098 83.5508 34.9856 82.2969 34.9856ZM129.986 9.04028H138.459C140.381 9.04028 142.004 9.33325 143.328 9.91919C144.664 10.5051 145.678 11.3723 146.369 12.5208C147.072 13.6575 147.424 15.0579 147.424 16.7219C147.424 17.8938 147.184 18.9661 146.703 19.9387C146.234 20.8997 145.555 21.72 144.664 22.3997C143.785 23.0676 142.73 23.5657 141.5 23.8938L140.551 24.2629H132.588L132.553 21.5032H138.564C139.783 21.5032 140.797 21.2922 141.605 20.8704C142.414 20.4368 143.023 19.8567 143.434 19.1301C143.844 18.4036 144.049 17.6008 144.049 16.7219C144.049 15.7375 143.855 14.8762 143.469 14.1379C143.082 13.3997 142.473 12.8313 141.641 12.4329C140.82 12.0227 139.76 11.8176 138.459 11.8176H133.379V34.634H129.986V9.04028ZM144.945 34.634L138.723 23.0325L142.256 23.0149L148.566 34.4231V34.634H144.945ZM163.314 30.2395V15.6145H166.584V34.634H163.473L163.314 30.2395ZM163.93 26.2317L165.283 26.1965C165.283 27.4622 165.148 28.634 164.879 29.7122C164.621 30.7786 164.199 31.7043 163.613 32.4895C163.027 33.2747 162.26 33.8899 161.311 34.3352C160.361 34.7688 159.207 34.9856 157.848 34.9856C156.922 34.9856 156.072 34.8508 155.299 34.5813C154.537 34.3118 153.881 33.8958 153.33 33.3333C152.779 32.7708 152.352 32.0383 152.047 31.136C151.754 30.2336 151.607 29.1497 151.607 27.884V15.6145H154.859V27.9192C154.859 28.7747 154.953 29.4836 155.141 30.0461C155.34 30.5969 155.604 31.0364 155.932 31.3645C156.271 31.6809 156.646 31.9036 157.057 32.0325C157.479 32.1614 157.912 32.2258 158.357 32.2258C159.74 32.2258 160.836 31.9622 161.645 31.4348C162.453 30.8958 163.033 30.175 163.385 29.2727C163.748 28.3586 163.93 27.345 163.93 26.2317ZM174.793 19.675V34.634H171.541V15.6145H174.617L174.793 19.675ZM174.02 24.4036L172.666 24.3508C172.678 23.05 172.871 21.8489 173.246 20.7473C173.621 19.634 174.148 18.6672 174.828 17.8469C175.508 17.0266 176.316 16.3938 177.254 15.9485C178.203 15.4915 179.252 15.2629 180.4 15.2629C181.338 15.2629 182.182 15.3918 182.932 15.6497C183.682 15.8958 184.32 16.2942 184.848 16.845C185.387 17.3958 185.797 18.1106 186.078 18.9895C186.359 19.8567 186.5 20.9172 186.5 22.1711V34.634H183.23V22.136C183.23 21.1399 183.084 20.343 182.791 19.7454C182.498 19.136 182.07 18.6965 181.508 18.427C180.945 18.1458 180.254 18.0051 179.434 18.0051C178.625 18.0051 177.887 18.175 177.219 18.5149C176.562 18.8547 175.994 19.3235 175.514 19.9211C175.045 20.5188 174.676 21.2043 174.406 21.9778C174.148 22.7395 174.02 23.5481 174.02 24.4036Z" fill="#141414"/>
</g>
<defs>
<filter id="filter0_d_747_6234" x="-2" y="0.916748" width="195" height="48.8889" filterUnits="userSpaceOnUse" color-interpolation-filters="sRGB">
<feFlood flood-opacity="0" result="BackgroundImageFix"/>
<feColorMatrix in="SourceAlpha" type="matrix" values="0 0 0 0 0 0 0 0 0 0 0 0 0 0 0 0 0 0 127 0" result="hardAlpha"/>
<feOffset dy="4"/>
<feGaussianBlur stdDeviation="2"/>
<feComposite in2="hardAlpha" operator="out"/>
<feColorMatrix type="matrix" values="0 0 0 0 0 0 0 0 0 0 0 0 0 0 0 0 0 0 0.25 0"/>
<feBlend mode="normal" in2="BackgroundImageFix" result="effect1_dropShadow_747_6234"/>
<feBlend mode="normal" in="SourceGraphic" in2="effect1_dropShadow_747_6234" result="shape"/>
</filter>
</defs>
</svg>
